<?xml version="1.0" encoding="UTF-8" standalone="no"?>
<!-- Created with Inkscape (http://www.inkscape.org/) -->

<svg
   xmlns:dc="http://purl.org/dc/elements/1.1/"
   xmlns:cc="http://creativecommons.org/ns#"
   xmlns:rdf="http://www.w3.org/1999/02/22-rdf-syntax-ns#"
   xmlns:svg="http://www.w3.org/2000/svg"
   xmlns="http://www.w3.org/2000/svg"
   xmlns:sodipodi="http://sodipodi.sourceforge.net/DTD/sodipodi-0.dtd"
   xmlns:inkscape="http://www.inkscape.org/namespaces/inkscape"
   width="1060.5576"
   height="964.9231"
   id="svg2"
   version="1.1"
   inkscape:version="0.48.5 r10040"
   sodipodi:docname="drakkair-logo.svg">
  <defs
     id="defs4">
    <inkscape:path-effect
       effect="skeletal"
       id="path-effect3998"
       is_visible="true"
       pattern="M 0,0 0,10 10,5 z"
       copytype="single_stretched"
       prop_scale="1"
       scale_y_rel="false"
       spacing="0"
       normal_offset="0"
       tang_offset="0"
       prop_units="false"
       vertical_pattern="false"
       fuse_tolerance="0" />
    <inkscape:path-effect
       effect="skeletal"
       id="path-effect3994"
       is_visible="true"
       pattern="M 0,5 C 0,2.24 2.24,0 5,0 7.76,0 10,2.24 10,5 10,7.76 7.76,10 5,10 2.24,10 0,7.76 0,5 z"
       copytype="single_stretched"
       prop_scale="1"
       scale_y_rel="false"
       spacing="0"
       normal_offset="0"
       tang_offset="0"
       prop_units="false"
       vertical_pattern="false"
       fuse_tolerance="0" />
    <filter
       inkscape:label="Invert"
       x="0"
       y="0"
       width="1"
       height="1"
       inkscape:menu="Color"
       inkscape:menu-tooltip="Invert colors"
       color-interpolation-filters="sRGB"
       id="filter3958">
      <feColorMatrix
         type="saturate"
         values="1"
         result="fbSourceGraphic"
         id="feColorMatrix3960" />
      <feColorMatrix
         in="fbSourceGraphic"
         values="-1 0 0 0 1 0 -1 0 0 1 0 0 -1 0 1 0 0 0 1 0 "
         id="feColorMatrix3962" />
    </filter>
  </defs>
  <sodipodi:namedview
     id="base"
     pagecolor="#ffffff"
     bordercolor="#666666"
     borderopacity="1.0"
     inkscape:pageopacity="0.0"
     inkscape:pageshadow="2"
     inkscape:zoom="1"
     inkscape:cx="462.70102"
     inkscape:cy="542.06969"
     inkscape:document-units="px"
     inkscape:current-layer="layer1"
     showgrid="false"
     showguides="true"
     inkscape:guide-bbox="true"
     inkscape:window-width="1920"
     inkscape:window-height="1018"
     inkscape:window-x="-8"
     inkscape:window-y="-8"
     inkscape:window-maximized="1"
     inkscape:snap-bbox="true"
     inkscape:bbox-nodes="true"
     fit-margin-top="0"
     fit-margin-left="0"
     fit-margin-right="0"
     fit-margin-bottom="0" />
  <metadata
     id="metadata7">
    <rdf:RDF>
      <cc:Work
         rdf:about="">
        <dc:format>image/svg+xml</dc:format>
        <dc:type
           rdf:resource="http://purl.org/dc/dcmitype/StillImage" />
        <dc:title />
      </cc:Work>
    </rdf:RDF>
  </metadata>
  <g
     inkscape:label="Layer 1"
     inkscape:groupmode="layer"
     id="layer1"
     transform="translate(155.28197,237.63609)">
    <rect
       y="226.93211"
       x="696.24573"
       height="71"
       width="459"
       id="rect4344"
       style="fill:#ffff00;fill-opacity:1;stroke:none" />
    <rect
       style="fill:#333333;fill-opacity:1;stroke:none"
       id="rect3867"
       width="1060.5576"
       height="964.92303"
       x="-155.28197"
       y="-237.63609" />
    <rect
       y="268.61407"
       x="-155.28197"
       height="458.67291"
       width="1060.5576"
       id="rect3869"
       style="fill:#262626;fill-opacity:1;stroke:none" />
    <text
       sodipodi:linespacing="125%"
       id="text3930"
       y="310.19165"
       x="296.0127"
       style="font-size:40px;font-style:normal;font-weight:normal;line-height:125%;letter-spacing:0px;word-spacing:0px;fill:#ffffff;fill-opacity:1;stroke:none;font-family:Sans"
       xml:space="preserve"><tspan
         style="font-style:normal;font-variant:normal;font-weight:normal;font-stretch:normal;fill:#ffffff;fill-opacity:1;font-family:Open Sans;-inkscape-font-specification:Open Sans"
         y="310.19165"
         x="296.0127"
         id="tspan3932"
         sodipodi:role="line">Drakkair</tspan></text>
    <text
       sodipodi:linespacing="125%"
       id="text3954"
       y="327.48233"
       x="347.15283"
       style="font-size:15px;font-style:normal;font-variant:normal;font-weight:normal;font-stretch:normal;line-height:125%;letter-spacing:0px;word-spacing:0px;fill:#b15b02;fill-opacity:1;stroke:none;font-family:Open Sans;-inkscape-font-specification:Open Sans"
       xml:space="preserve"><tspan
         id="tspan3956"
         y="327.48233"
         x="347.15283"
         sodipodi:role="line">TRIP MANAGER</tspan></text>
    <g
       id="g4278">
      <path
         id="path3964"
         d="M 402.0625,153.34375 C 381.98262,166.50355 364.4811,175.0762 340,171.3125 c 16.49409,3.95416 22.32767,13.00992 23,20.9375 -1.66444,0.75125 -3.41532,1.6819 -5.28125,2.8125 -6.72411,4.07425 -14.87653,1.358 -16.375,-3.96875 -9.72764,-34.57979 -37.84321,-26.8511 -38.125,-18.96875 -0.61673,17.25127 19.61094,13.64766 24,26.59375 4.4862,13.23264 1.63648,22.79533 4.8125,34.5625 3.08233,11.42008 8.06612,-3.51047 12.6875,16.5 1.44447,6.25454 9.89786,6.32742 10.78125,-3.875 0.62269,-7.19153 7.85203,-5.84927 8.25,4.28125 0.32632,8.30644 10.35407,8.78509 9.28125,-0.28125 -1.15509,-9.76155 9.15281,-11.15816 8.28125,0.59375 -0.75663,10.20229 8.92539,8.46331 7.59375,-0.875 -1.65036,-11.57329 9.09225,-13.55302 7.5,0.375 -1.2067,10.55549 9.00488,5.48981 8.625,-0.5 -1.3419,-21.15877 11.92738,-8.18336 38.5,-64.59375 -49.6844,52.91806 -45.85078,-1.30243 -74.625,5.3125 -0.11985,-1.2272 -0.44595,-2.46837 -1.125,-3.6875 12.32034,2.8157 19.33939,-0.98023 21.34375,-3.375 l -11.09375,-0.875 -0.0625,0 c -3.77794,0.56222 -10.57122,0.0706 -14.8125,-1.25 l 15.875,0.65625 c 6.68202,-2.14172 16.14738,-4.27557 16.84375,-10.9375 -3.98378,1.3682 -10.66962,3.43068 -15.75,3.25 -3.50411,1.46446 -11.0898,2.43926 -15.6875,1.875 l 15.15625,-2.25 c 13.67639,-6.15933 22.70202,-12.771 22.46875,-20.28125 z"
         style="fill:#527e35;fill-opacity:1;stroke:none"
         inkscape:connector-curvature="0" />
      <path
         transform="matrix(1.1764706,0,0,1.1764706,-55.630066,-29.793929)"
         d="m 315.98833,168.83226 c 0,0.41493 -0.33637,0.7513 -0.7513,0.7513 -0.41493,0 -0.7513,-0.33637 -0.7513,-0.7513 0,-0.41493 0.33637,-0.7513 0.7513,-0.7513 0.41493,0 0.7513,0.33637 0.7513,0.7513 z"
         sodipodi:ry="0.75130093"
         sodipodi:rx="0.75130093"
         sodipodi:cy="168.83226"
         sodipodi:cx="315.23703"
         id="path3966"
         style="fill:#262626;fill-opacity:1;stroke:none"
         sodipodi:type="arc" />
      <path
         sodipodi:type="arc"
         style="fill:#262626;fill-opacity:1;stroke:none"
         id="path3968"
         sodipodi:cx="315.23703"
         sodipodi:cy="168.83226"
         sodipodi:rx="0.75130093"
         sodipodi:ry="0.75130093"
         d="m 315.98833,168.83226 c 0,0.41493 -0.33637,0.7513 -0.7513,0.7513 -0.41493,0 -0.7513,-0.33637 -0.7513,-0.7513 0,-0.41493 0.33637,-0.7513 0.7513,-0.7513 0.41493,0 0.7513,0.33637 0.7513,0.7513 z"
         transform="matrix(1.1764706,0,0,1.1764706,-64.225833,-24.468531)" />
      <path
         sodipodi:nodetypes="ccc"
         inkscape:connector-curvature="0"
         id="path3970"
         d="m 304.2106,178.4003 c 3.48654,0.15667 7.09434,0.2579 8.50737,-1.78987 -1.70875,0.99731 -1.4048,1.79334 -0.17677,2.49697"
         style="fill:#262626;fill-opacity:1;stroke:none" />
      <path
         transform="matrix(1.1764706,0,0,1.1764706,43.445403,28.142241)"
         d="m 315.98833,168.83226 c 0,0.41493 -0.33637,0.7513 -0.7513,0.7513 -0.41493,0 -0.7513,-0.33637 -0.7513,-0.7513 0,-0.41493 0.33637,-0.7513 0.7513,-0.7513 0.41493,0 0.7513,0.33637 0.7513,0.7513 z"
         sodipodi:ry="0.75130093"
         sodipodi:rx="0.75130093"
         sodipodi:cy="168.83226"
         sodipodi:cx="315.23703"
         id="path3966-4"
         style="fill:#262626;fill-opacity:1;stroke:none"
         sodipodi:type="arc" />
      <path
         sodipodi:nodetypes="cc"
         inkscape:connector-curvature="0"
         id="path4000"
         d="m 423.18846,219.36646 c -0.87358,0.062 -2.21368,-0.96135 -2.48774,-1.90507"
         style="fill:#262626;fill-opacity:1;stroke:none" />
      <path
         style="fill:#262626;fill-opacity:1;stroke:none"
         d="m 425.15723,216.6327 c -0.67616,0.0479 -1.71343,-0.7441 -1.92556,-1.47456"
         id="path4002"
         inkscape:connector-curvature="0"
         sodipodi:nodetypes="cc" />
      <path
         sodipodi:nodetypes="cc"
         inkscape:connector-curvature="0"
         id="path4004"
         d="m 427.34473,213.91441 c -0.52591,0.0373 -1.33268,-0.57875 -1.49768,-1.1469"
         style="fill:#262626;fill-opacity:1;stroke:none" />
      <path
         style="fill:#262626;fill-opacity:1;stroke:none"
         d="m 428.90723,211.24309 c -0.34485,0.0245 -0.87386,-0.3795 -0.98205,-0.75205"
         id="path4006"
         inkscape:connector-curvature="0"
         sodipodi:nodetypes="cc" />
      <path
         sodipodi:nodetypes="cc"
         inkscape:connector-curvature="0"
         id="path4000-0"
         d="m 334.96452,215.27587 c -0.756,0.72178 -3.24887,1.1319 -4.63407,0.75801"
         style="fill:#262626;fill-opacity:1;stroke:none" />
      <path
         style="fill:#262626;fill-opacity:1;stroke:none"
         d="m 336.37077,220.02587 c -0.94463,0.72178 -4.05949,1.1319 -5.79032,0.75801"
         id="path4026"
         inkscape:connector-curvature="0"
         sodipodi:nodetypes="cc" />
      <path
         sodipodi:nodetypes="cc"
         inkscape:connector-curvature="0"
         id="path4028"
         d="m 338.24576,224.93212 c -1.17404,0.72178 -5.04539,1.1319 -7.19657,0.75801"
         style="fill:#262626;fill-opacity:1;stroke:none" />
      <path
         style="fill:#262626;fill-opacity:1;stroke:none"
         d="m 340.74576,229.96337 c -1.45953,0.72178 -6.27228,1.1319 -8.94657,0.75801"
         id="path4030"
         inkscape:connector-curvature="0"
         sodipodi:nodetypes="cc" />
      <path
         sodipodi:nodetypes="cc"
         inkscape:connector-curvature="0"
         id="path4000-0-9"
         d="m 350.14857,197.0794 c 0.64511,0.62874 1.05406,2.74142 0.75639,3.92744"
         style="fill:#262626;fill-opacity:1;stroke:none" />
      <path
         style="fill:#262626;fill-opacity:1;stroke:none"
         d="m 354.71108,196.76689 c 0.78652,0.70846 1.28511,3.089 0.92219,4.4254"
         id="path4050"
         inkscape:connector-curvature="0"
         sodipodi:nodetypes="cc" />
      <path
         sodipodi:nodetypes="cc"
         inkscape:connector-curvature="0"
         id="path4052"
         d="m 373.16851,189.8919 c 1.08644,0.97861 1.77515,4.2669 1.27384,6.1129"
         style="fill:#262626;fill-opacity:1;stroke:none" />
      <path
         style="fill:#262626;fill-opacity:1;stroke:none"
         d="m 377.91851,190.17315 c 1.08644,0.97861 1.77515,4.2669 1.27384,6.1129"
         id="path4054"
         inkscape:connector-curvature="0"
         sodipodi:nodetypes="cc" />
      <path
         sodipodi:nodetypes="cc"
         inkscape:connector-curvature="0"
         id="path4056"
         d="m 383.39504,192.4549 c 0.96836,0.95243 1.27943,3.86052 0.57186,5.40548"
         style="fill:#262626;fill-opacity:1;stroke:none" />
      <path
         style="fill:#262626;fill-opacity:1;stroke:none"
         d="m 388.39952,196.25024 c 0.79861,0.9863 0.63769,3.50501 -0.30536,4.68052"
         id="path4058"
         inkscape:connector-curvature="0"
         sodipodi:nodetypes="cc" />
      <path
         sodipodi:nodetypes="cc"
         inkscape:connector-curvature="0"
         id="path4060"
         d="m 392.27452,199.87524 c 0.79861,0.88094 0.63769,3.13058 -0.30536,4.18052"
         style="fill:#262626;fill-opacity:1;stroke:none" />
      <path
         style="fill:#262626;fill-opacity:1;stroke:none"
         d="m 396.08702,203.21899 c 0.79861,0.73607 0.63769,2.61575 -0.30536,3.49302"
         id="path4062"
         inkscape:connector-curvature="0"
         sodipodi:nodetypes="cc" />
      <path
         sodipodi:nodetypes="cc"
         inkscape:connector-curvature="0"
         id="path4000-8"
         d="m 360.97747,236.44398 c 0.32984,1.01532 -0.24984,3.26301 -1.0813,4.17584"
         style="fill:#262626;fill-opacity:1;stroke:none" />
      <path
         style="fill:#262626;fill-opacity:1;stroke:none"
         d="m 364.24784,235.20655 c 0.32984,1.36993 -0.24984,4.4026 -1.0813,5.63424"
         id="path4154"
         inkscape:connector-curvature="0"
         sodipodi:nodetypes="cc" />
      <path
         sodipodi:nodetypes="cc"
         inkscape:connector-curvature="0"
         id="path4156"
         d="m 368.40209,233.57136 c 0.32984,1.72453 -0.24984,5.5422 -1.0813,7.09265"
         style="fill:#262626;fill-opacity:1;stroke:none" />
      <path
         style="fill:#262626;fill-opacity:1;stroke:none"
         d="m 371.98182,232.64328 c 0.32984,1.98242 -0.24984,6.371 -1.0813,8.15331"
         id="path4158"
         inkscape:connector-curvature="0"
         sodipodi:nodetypes="cc" />
      <path
         sodipodi:nodetypes="cc"
         inkscape:connector-curvature="0"
         id="path4160"
         d="m 376.00349,232.55489 c 0.32984,1.98242 -0.24984,6.371 -1.0813,8.15331"
         style="fill:#262626;fill-opacity:1;stroke:none" />
      <path
         sodipodi:nodetypes="cc"
         inkscape:connector-curvature="0"
         id="path4156-8"
         d="m 379.8122,233.52174 c 0.32984,1.72453 -0.24984,5.5422 -1.0813,7.09265"
         style="fill:#262626;fill-opacity:1;stroke:none" />
      <path
         style="fill:#262626;fill-opacity:1;stroke:none"
         d="m 383.78968,235.13483 c 0.32984,1.36993 -0.24984,4.4026 -1.0813,5.63424"
         id="path4154-2"
         inkscape:connector-curvature="0"
         sodipodi:nodetypes="cc" />
      <path
         sodipodi:nodetypes="cc"
         inkscape:connector-curvature="0"
         id="path4000-8-4"
         d="m 387.81135,236.57113 c 0.32984,1.01532 -0.24984,3.26301 -1.0813,4.17584"
         style="fill:#262626;fill-opacity:1;stroke:none" />
    </g>
    <g
       id="g4313"
       transform="translate(422.71804,30.683767)"
       style="fill:#527e35;fill-opacity:1;stroke:none">
      <rect
         y="222.7249"
         x="522.90546"
         height="20"
         width="20"
         id="rect4247"
         style="fill:#527e35;fill-opacity:1;stroke:none" />
      <rect
         style="fill:#527e35;fill-opacity:1;stroke:none"
         id="rect4309"
         width="4"
         height="4"
         x="506.90546"
         y="222.7249" />
      <rect
         y="222.7249"
         x="512.90546"
         height="8"
         width="8"
         id="rect4311"
         style="fill:#527e35;fill-opacity:1;stroke:none" />
    </g>
    <g
       style="fill:#333333;fill-opacity:1;stroke:none"
       transform="translate(463.96804,30.683767)"
       id="g4318">
      <rect
         style="fill:#333333;fill-opacity:1;stroke:none"
         id="rect4320"
         width="20"
         height="20"
         x="522.90546"
         y="222.7249" />
      <rect
         y="222.7249"
         x="506.90546"
         height="4"
         width="4"
         id="rect4322"
         style="fill:#333333;fill-opacity:1;stroke:none" />
      <rect
         style="fill:#333333;fill-opacity:1;stroke:none"
         id="rect4324"
         width="8"
         height="8"
         x="512.90546"
         y="222.7249" />
    </g>
    <g
       id="g4326"
       transform="translate(504.71804,30.683767)"
       style="fill:#262626;fill-opacity:1;stroke:none">
      <rect
         y="222.7249"
         x="522.90546"
         height="20"
         width="20"
         id="rect4328"
         style="fill:#262626;fill-opacity:1;stroke:none" />
      <rect
         style="fill:#262626;fill-opacity:1;stroke:none"
         id="rect4330"
         width="4"
         height="4"
         x="506.90546"
         y="222.7249" />
      <rect
         y="222.7249"
         x="512.90546"
         height="8"
         width="8"
         id="rect4332"
         style="fill:#262626;fill-opacity:1;stroke:none" />
    </g>
    <g
       style="fill:#ffffff;fill-opacity:1;stroke:none"
       transform="translate(544.96804,30.683767)"
       id="g4334">
      <rect
         style="fill:#ffffff;fill-opacity:1;stroke:none"
         id="rect4336"
         width="20"
         height="20"
         x="522.90546"
         y="222.7249" />
      <rect
         y="222.7249"
         x="506.90546"
         height="4"
         width="4"
         id="rect4338"
         style="fill:#ffffff;fill-opacity:1;stroke:none" />
      <rect
         style="fill:#ffffff;fill-opacity:1;stroke:none"
         id="rect4340"
         width="8"
         height="8"
         x="512.90546"
         y="222.7249" />
    </g>
    <g
       id="g4346"
       transform="translate(584.91957,30.683767)"
       style="fill:#b15b02;fill-opacity:1;stroke:none">
      <rect
         y="222.7249"
         x="522.90546"
         height="20"
         width="20"
         id="rect4348"
         style="fill:#b15b02;fill-opacity:1;stroke:none" />
      <rect
         style="fill:#b15b02;fill-opacity:1;stroke:none"
         id="rect4350"
         width="4"
         height="4"
         x="506.90546"
         y="222.7249" />
      <rect
         y="222.7249"
         x="512.90546"
         height="8"
         width="8"
         id="rect4352"
         style="fill:#b15b02;fill-opacity:1;stroke:none" />
    </g>
  </g>
</svg>
